<svg width="100%" height="66%" class="sea" viewBox="0 0 1920 513" preserveAspectRatio="xMidYMin slice" fill="none" xmlns="http://www.w3.org/2000/svg">

<!-- Night Theme -->
<rect class="sea_color" width="1920" height="513" fill="#4B63A1"/>

<path class="depth1" d="M0 156.084L348.5 130.554L527.5 196.631L604 239.181L140.5 311.765L928.5 255.2L1255.5 294.746L1804.5 196.631L1401.5 84L1920 130.554V513H0L0 156.084Z" fill="#2C3C82" fill-opacity="0.8"/>

<path class="depth2" d="M707.699 159L782.472 183.5L372.905 262L336.241 217L250.372 214L232.523 229.5L182.352 183.5L707.699 159Z" fill="#223E73" fill-opacity="0.5"/>
<path class="depth2" d="M1386.93 136.5L1753.09 174.5L1552.88 208L1351.72 190H898.251L1281.77 161.5L1199.28 136.5H1386.93Z" fill="#223E73" fill-opacity="0.5"/>
<path class="depth2" d="M1866.1 29L1920 46.3871H1811.16L1920 64.129L1811.16 84H1675.9L1735.36 64.129L1675.9 46.3871L1866.1 29Z" fill="#223E73" fill-opacity="0.5"/>
<path class="depth2" d="M301.508 54L376.281 78.5H37.6281L301.508 54Z" fill="#223E73" fill-opacity="0.5"/>
<path class="depth2" d="M1826.52 392L1501.02 427L1259.52 374L692.518 427L898.251 374L1281.77 345.5L1501.02 358.5L1826.52 392Z" fill="#223E73" fill-opacity="0.5"/>

<path class="light1" d="M0 62.4995L291.377 96.9995H308.744L317.427 105.499L301.508 123.999H276.422L263.879 120.999L211.296 150.499H105.648L108.543 138.999L192.482 145.999V139.999L176.08 127.499L102.754 126.499L80.0804 147.999L0 138.999L0 62.4995Z" fill="#6481B7" fill-opacity="0.8"/>
<path class="light1" d="M279.317 128.499L327.075 140.999H344.442L353.126 149.499H245.065L279.317 128.499Z" fill="#6481B7" fill-opacity="0.8"/>
<path class="light1" d="M284.623 233.5L392.683 221L349.749 246V315L206.472 271.5L250.372 254.5L284.623 233.5Z" fill="#6481B7" fill-opacity="0.8"/>
<path class="light1" d="M960.965 104H1004.86V96L1022.23 116L995.216 120.5L972.06 181.5L960.965 104Z" fill="#6481B7" fill-opacity="0.8"/>
<path class="light1" d="M1136.56 181.784L988.945 234.293L1092.66 167.29L1136.56 159.212V181.784Z" fill="#6481B7" fill-opacity="0.8"/>
<path class="light1" d="M801.171 243.445L718.878 242.427L772.348 182.183L856.455 166.376L937.838 184.21L864.194 246.98L829.289 276.898L801.171 243.445Z" fill="#6481B7" fill-opacity="0.8"/>
<path class="light1" d="M1491.14 187.5H1714.01L1606.92 173.183L1522.49 126L1723.18 173.183L1825.93 233.427L1661.91 218L1491.14 187.5Z" fill="#6481B7" fill-opacity="0.8"/>
<path class="light1" d="M1832.2 164.5L1841.37 171.5L1824.96 186.5L1750.19 155L1794.09 164.5L1832.2 164.5Z" fill="#6481B7" fill-opacity="0.8"/>
<path class="light1" d="M270.633 51.3758L359.397 51.3759L448.167 67.1828L532.274 51.3759L779.578 51.3759L476.99 93.5L303.92 67.1827L270.633 51.3758Z" fill="#6481B7" fill-opacity="0.8"/>
<path class="light1" d="M1356.06 52.9997L1278.87 55.4997L1397.07 39.9997L1373.91 55.4997L1356.06 52.9997Z" fill="#6481B7" fill-opacity="0.8"/>
<path class="light1" d="M910.794 21.5001L884.744 20.0001L917.548 19.0001L938.774 7.00008L920.925 5.00001H946.975L923.337 19.0001L954.693 20.0001L892.462 25.0001L910.794 21.5001Z" fill="#6481B7" fill-opacity="0.8"/>
<path class="light1" d="M859.176 77L894.392 87L781.025 92L757.869 97L803.698 111.14L878.315 122.36L786.814 123.5L670.553 111.14H744.844L693.226 97L762.211 77H859.176Z" fill="#6481B7" fill-opacity="0.8"/>
<path class="light1" d="M879.633 45.3837L919.82 41.5559L876.394 54.1293L851.446 52.0874L824.925 52.0813L827.734 44.4958L842.578 39.8555L877.98 49.8458L879.633 45.3837Z" fill="#6481B7" fill-opacity="0.8"/>
<path class="light1" d="M1037.13 0.118776L1029.06 12.6188L1087.92 15.1188L1054.15 19.1188L1137.12 26.6187L1039.19 29.1188L1114.93 32.9745L1032.88 32.0368L990.951 32.0369L1060.42 23.1188L993.363 17.6106L1015.4 8.92209L1000.12 0.118774L1037.13 0.118776Z" fill="#6481B7" fill-opacity="0.8"/>
<path class="light1" d="M1032.17 62.0218L1074.66 63.1988L1045.18 66.4837L984.94 70.5132L931.055 76.6179L985.206 63.5271L1032.17 62.0218Z" fill="#6481B7" fill-opacity="0.8"/>
<path class="light1" d="M1172.15 109.585L1071.7 91.9802L1113.89 73.2928L1199.36 96.3565L1161.13 162.379L1133.25 127.717L1172.15 109.585Z" fill="#6481B7" fill-opacity="0.8"/>

<path class="light2" d="M973.508 52L1185.77 50L1116.78 54H845.186L973.508 52Z" fill="#D9D9D9"/>
<path class="light2" d="M894.217 26.5L1002.45 25L967.276 28H828.784L894.217 26.5Z" fill="#D9D9D9"/>
<path class="light2" d="M1073.97 111.5L1329.53 104L1246.47 119H919.477L1073.97 111.5Z" fill="#D9D9D9"/>
<path class="light2" d="M679.375 166.5L799.839 164L777.769 175.5L757.705 179L769.966 171.5L611.698 173L679.375 166.5Z" fill="#D9D9D9"/>
<path class="light2" d="M807.558 109.5L928.022 107L969.509 109.5L951.66 112L898.149 114.5L874.957 112L807.558 109.5Z" fill="#D9D9D9"/>
<path class="light2" d="M835.688 67.5L1100.86 65L1014.68 70H675.377L835.688 67.5Z" fill="#D9D9D9"/>

<!-- Day Theme -->
<rect class="sea_color day_theme" width="1920" height="513" fill="#5B6E9E"/>

<path class="depth1 day_theme" d="M0 156.084L348.5 130.554L527.5 196.631L604 239.181L140.5 311.765L928.5 255.2L1255.5 294.746L1804.5 196.631L1401.5 84L1920 130.554V513H0L0 156.084Z" fill="#4D5986" fill-opacity="0.8"/>

<path class="depth2 day_theme" d="M707.699 159L782.472 183.5L372.905 262L336.241 217L250.372 214L232.523 229.5L182.352 183.5L707.699 159Z" fill="#677AA3" fill-opacity="0.5"/>
<path class="depth2 day_theme" d="M1386.93 136.5L1753.09 174.5L1552.88 208L1351.72 190H898.251L1281.77 161.5L1199.28 136.5H1386.93Z" fill="#677AA3" fill-opacity="0.5"/>
<path class="depth2 day_theme" d="M1866.1 29L1920 46.3871H1811.16L1920 64.129L1811.16 84H1675.9L1735.36 64.129L1675.9 46.3871L1866.1 29Z" fill="#677AA3" fill-opacity="0.5"/>
<path class="depth2 day_theme" d="M301.508 54L376.281 78.5H37.6281L301.508 54Z" fill="#677AA3" fill-opacity="0.5"/>
<path class="depth2 day_theme" d="M1826.52 392L1501.02 427L1259.52 374L692.518 427L898.251 374L1281.77 345.5L1501.02 358.5L1826.52 392Z" fill="#677AA3" fill-opacity="0.5"/>

<path class="light1 day_theme" d="M0 62.4995L291.377 96.9995H308.744L317.427 105.499L301.508 123.999H276.422L263.879 120.999L211.296 150.499H105.648L108.543 138.999L192.482 145.999V139.999L176.08 127.499L102.754 126.499L80.0804 147.999L0 138.999L0 62.4995Z" fill="#8693AC" fill-opacity="0.8"/>
<path class="light1 day_theme" d="M279.317 128.499L327.075 140.999H344.442L353.126 149.499H245.065L279.317 128.499Z" fill="#8693AC" fill-opacity="0.8"/>
<path class="light1 day_theme" d="M284.623 233.5L392.683 221L349.749 246V315L206.472 271.5L250.372 254.5L284.623 233.5Z" fill="#8693AC" fill-opacity="0.8"/>
<path class="light1 day_theme" d="M960.965 104H1004.86V96L1022.23 116L995.216 120.5L972.06 181.5L960.965 104Z" fill="#8693AC" fill-opacity="0.8"/>
<path class="light1 day_theme" d="M1136.56 181.784L988.945 234.293L1092.66 167.29L1136.56 159.212V181.784Z" fill="#8693AC" fill-opacity="0.8"/>
<path class="light1 day_theme" d="M801.171 243.445L718.878 242.427L772.348 182.183L856.455 166.376L937.838 184.21L864.194 246.98L829.289 276.898L801.171 243.445Z" fill="#8693AC" fill-opacity="0.8"/>
<path class="light1 day_theme" d="M1491.14 187.5H1714.01L1606.92 173.183L1522.49 126L1723.18 173.183L1825.93 233.427L1661.91 218L1491.14 187.5Z" fill="#8693AC" fill-opacity="0.8"/>
<path class="light1 day_theme" d="M1832.2 164.5L1841.37 171.5L1824.96 186.5L1750.19 155L1794.09 164.5L1832.2 164.5Z" fill="#8693AC" fill-opacity="0.8"/>
<path class="light1 day_theme" d="M270.633 51.3758L359.397 51.3759L448.167 67.1828L532.274 51.3759L779.578 51.3759L476.99 93.5L303.92 67.1827L270.633 51.3758Z" fill="#8693AC" fill-opacity="0.8"/>
<path class="light1 day_theme" d="M1356.06 52.9997L1278.87 55.4997L1397.07 39.9997L1373.91 55.4997L1356.06 52.9997Z" fill="#8693AC" fill-opacity="0.8"/>
<path class="light1 day_theme" d="M910.794 21.5001L884.744 20.0001L917.548 19.0001L938.774 7.00008L920.925 5.00001H946.975L923.337 19.0001L954.693 20.0001L892.462 25.0001L910.794 21.5001Z" fill="#8693AC" fill-opacity="0.8"/>
<path class="light1 day_theme" d="M859.176 77L894.392 87L781.025 92L757.869 97L803.698 111.14L878.315 122.36L786.814 123.5L670.553 111.14H744.844L693.226 97L762.211 77H859.176Z" fill="#8693AC" fill-opacity="0.8"/>
<path class="light1 day_theme" d="M879.633 45.3837L919.82 41.5559L876.394 54.1293L851.446 52.0874L824.925 52.0813L827.734 44.4958L842.578 39.8555L877.98 49.8458L879.633 45.3837Z" fill="#8693AC" fill-opacity="0.8"/>
<path class="light1 day_theme" d="M1037.13 0.118776L1029.06 12.6188L1087.92 15.1188L1054.15 19.1188L1137.12 26.6187L1039.19 29.1188L1114.93 32.9745L1032.88 32.0368L990.951 32.0369L1060.42 23.1188L993.363 17.6106L1015.4 8.92209L1000.12 0.118774L1037.13 0.118776Z" fill="#8693AC" fill-opacity="0.8"/>
<path class="light1 day_theme" d="M1032.17 62.0218L1074.66 63.1988L1045.18 66.4837L984.94 70.5132L931.055 76.6179L985.206 63.5271L1032.17 62.0218Z" fill="#8693AC" fill-opacity="0.8"/>
<path class="light1 day_theme" d="M1172.15 109.585L1071.7 91.9802L1113.89 73.2928L1199.36 96.3565L1161.13 162.379L1133.25 127.717L1172.15 109.585Z" fill="#8693AC" fill-opacity="0.8"/>

<path class="light2 day_theme" d="M973.508 52L1185.77 50L1116.78 54H845.186L973.508 52Z" fill="#E3D0BE"/>
<path class="light2 day_theme" d="M894.217 26.5L1002.45 25L967.276 28H828.784L894.217 26.5Z" fill="#E3D0BE"/>
<path class="light2 day_theme" d="M1073.97 111.5L1329.53 104L1246.47 119H919.477L1073.97 111.5Z" fill="#E3D0BE"/>
<path class="light2 day_theme" d="M679.375 166.5L799.839 164L777.769 175.5L757.705 179L769.966 171.5L611.698 173L679.375 166.5Z" fill="#E3D0BE"/>
<path class="light2 day_theme" d="M807.558 109.5L928.022 107L969.509 109.5L951.66 112L898.149 114.5L874.957 112L807.558 109.5Z" fill="#E3D0BE"/>
<path class="light2 day_theme" d="M835.688 67.5L1100.86 65L1014.68 70H675.377L835.688 67.5Z" fill="#E3D0BE"/>

</svg>
