<svg width="100%" height="100%" class="moon" viewBox="0 0 160 160" fill="none" preserveAspectRatio="xMidYMid slice" xmlns="http://www.w3.org/2000/svg">

<!-- Night Theme -->
<circle class="crater" cx="80" cy="80" r="80" fill="#EFF6FF"/>
<mask id="mask0_19_7" style="mask-type:alpha" maskUnits="userSpaceOnUse" x="0" y="0" width="160" height="160">
<circle cx="80" cy="80" r="80" fill="white"/>
</mask>
    <g mask="url(#mask0_19_7)">
        <path class="crater" d="M70 21.5L94 16L103.5 21.5L123.5 13V2L58.5 -1.5V4L70 21.5Z" fill="#D6E7FF"/>
        <path class="crater" d="M141.5 74L142.5 81.5L153.5 106.5L155.5 107.5H166.5L156.5 48L151.5 48.5L141.5 46.5L141 57L137 56L133 57L133.5 61.5L141.5 74Z" fill="#D6E7FF"/>
        <path class="crater" d="M83.5 77L84 78.5L85 80H88.5L94 76.5L97 80L103.5 82.5L106 82L106.5 76L122 71L123 68L121 65L121.5 62L121 59.5L119 57L116 55.5V50L114.5 47.5L108 46L103 44.5L97 51L94.5 50L92 51L83.5 77Z" fill="#D6E7FF"/>
        <path class="crater" d="M115.5 121.5L111.5 121.5L110.5 135.5L100.5 142.5L103.5 148.5L113 153L133 143.5L147.503 124.78L135.539 118.504L129.5 115.5L115.5 121.5Z" fill="#D6E7FF"/>
        <path class="crater" d="M55.4999 63.5L56 68L53.5 75L55.4999 76.5L66.9999 70L70.9999 63.5L70.9999 60.5L69.9999 59.5L65.9999 60L65.9999 57.5776L64.4999 56.5L55.4999 63.5Z" fill="#D6E7FF"/>
        <path class="crater" d="M13.5 73.5L16 70.5L16 68L14.5 66.5L12.5 66.5L3.49999 56L-2 74L3.5 111L7.53957 109.5L17.5001 94L17 90.5L11 84.5L13.5 73.5Z" fill="#D6E7FF"/>
        <path class="crater" d="M68.5001 146.112L76 133.5L80.5 127.5L93.5001 122.232L96 119.904L96 115.095L90.5 107.5L85.5 105L80.5 105L76 107.5L68.5 104L65.5 104L63 105L62 115.095L41 123L35 121.5L31.5 119L25.5 119.5L21.5 119.5L16 121L13.5 119.5L8 119L36.5 152.5L65.5 159L63 154L65.5 147.5L68.5001 146.112Z" fill="#D6E7FF"/>
        <path class="crater" d="M93.5 146L90.5001 147L90.0001 150.5L92.0001 155L85.0001 161L107 156L93.5 146Z" fill="#D6E7FF"/>
        <path class="crater" fill-rule="evenodd" clip-rule="evenodd" d="M30.8234 32.5C27.4702 36.721 23.9529 41.7308 22.9812 45.1373L22.9738 45.163L22.9639 45.1876L22.963 45.1897L22.9595 45.1986L22.9446 45.2366C22.9314 45.2706 22.9119 45.3217 22.8876 45.3879C22.8389 45.5203 22.771 45.7125 22.6953 45.9485C22.5434 46.422 22.3628 47.0646 22.243 47.7498C22.1224 48.4396 22.0682 49.1461 22.1521 49.7568C22.236 50.3682 22.4489 50.8252 22.8083 51.1063C23.0303 51.2799 23.2417 51.337 23.4523 51.3266C23.6756 51.3156 23.9349 51.2262 24.2295 51.0425C24.8266 50.6703 25.4527 49.9845 26.0358 49.1889C26.6116 48.403 27.1152 47.5525 27.4763 46.8943C27.6564 46.5662 27.7999 46.288 27.8981 46.0924C27.9472 45.9946 27.9849 45.9176 28.0101 45.8655L28.0385 45.8065L28.0454 45.792L28.047 45.7886L28.2082 45.4446L29.2828 45.2366L32.1899 46.108L31.9658 46.6818L31.9642 46.6861L31.9585 46.7008L31.9356 46.7608C31.9156 46.8139 31.8863 46.8924 31.8499 46.9927C31.7771 47.1935 31.676 47.4811 31.5636 47.8266C31.3381 48.5196 31.0701 49.4359 30.8924 50.3458C30.7119 51.2705 30.6372 52.1285 30.7551 52.7323C32.5 52.9239 31.768 52.5 32.5 52.5C33.4616 52.5 33.443 53.0458 34.4216 52.1933C35.3989 51.3418 36.6406 48.1244 37.5 46.6818C39.1405 43.9281 40.1482 42.4312 40.9084 39.3264C40.2533 39.0959 39.518 38.7983 38.9056 38.3804C38.1432 37.86 37.5001 37.1011 37.5 36C37.5 34.0656 38.473 32.5461 39.8382 31.5904C41.0392 30.7497 42.555 30.3349 44.0191 30.44C44.0388 29.9962 44.0475 29.517 43.8919 28.9964C43.687 28.3113 43.1749 27.5448 41.8038 26.9599C39.4984 25.9764 38.0193 26.5547 36 27.5C33.9631 28.4535 32.4996 30.39 30.8234 32.5ZM44.4095 31.4918C43.0427 31.2664 41.5 33.5 41 34C40.5 34.5 41 35.5 40.5 37C40.5 37.808 41 38 41.5828 38.5005C41.8083 38.5029 42.0605 38.5148 42.3142 38.5268C42.4744 38.5343 42.6352 38.5419 42.7903 38.5472C43.2424 38.5625 43.694 38.5614 44.1214 38.5044C44.9659 38.3918 45.6541 38.0737 46.0527 37.2764C47.5373 34.3073 45.9891 31.8147 44.4095 31.4918ZM41.8932 39.5089C41.1162 42.7043 39.7651 46.3221 38.0545 49.1934C37.1639 50.6883 36.1636 52.0019 35.0784 52.9473C33.9945 53.8917 32.7884 54.5 31.5 54.5C31.0166 54.5 30.6072 54.3403 30.3013 54.027C30.0085 53.7271 29.8529 53.3297 29.7737 52.9239C29.617 52.1214 29.7254 51.1044 29.911 50.1542C30.0994 49.1891 30.3806 48.2303 30.6127 47.5171C30.6896 47.2807 30.7615 47.0702 30.8234 46.8941L29 46.5L28.785 46.5545C28.6826 46.7583 28.5358 47.0423 28.353 47.3754C27.9805 48.0544 27.4535 48.946 26.8424 49.7799C26.2385 50.6041 25.5211 51.4157 24.7586 51.8911C24.3733 52.1313 23.9487 52.3033 23.5016 52.3254C23.0418 52.3481 22.5961 52.2098 22.1922 51.894C21.5518 51.3931 21.2649 50.6468 21.1613 49.8928C21.0577 49.1381 21.1286 48.3174 21.2579 47.5776C21.3881 46.8332 21.5824 46.1441 21.743 45.6432C21.8236 45.392 21.8962 45.1863 21.9491 45.0427C21.9755 44.9708 21.997 44.9143 22.0122 44.8753L22.0264 44.8389C23.0292 41.3365 25.4761 35.6188 28.922 31.281C30.6493 29.1067 32.653 27.2466 34.8833 26.2025C37.1313 25.1502 39.601 24.9329 42.1962 26.0401C43.8143 26.7304 44.5521 27.7139 44.85 28.71C45.0625 29.4209 45.0384 30.1414 45.0148 30.6238C47.1946 31.3866 48.5374 34.5431 46.9472 37.7236C46.3458 38.9263 45.284 39.3582 44.2535 39.4956C43.7433 39.5636 43.2262 39.5625 42.7564 39.5466C42.5681 39.5402 42.3933 39.5319 42.2285 39.524C42.1121 39.5184 42.0007 39.5131 41.8932 39.5089Z" fill="#D6E7FF"/>
    </g>
<!-- Day Theme -->
<circle class="crater day_theme" cx="80" cy="80" r="80" fill="#F6F4DA"/>
<mask id="mask0_19_7" style="mask-type:alpha" maskUnits="userSpaceOnUse" x="0" y="0" width="160" height="160">
<circle cx="80" cy="80" r="80" fill="white"/>
</mask>
    <g mask="url(#mask0_19_7)">
        <path class="crater day_theme" d="M70 21.5L94 16L103.5 21.5L123.5 13V2L58.5 -1.5V4L70 21.5Z" fill="#F6F4DA"/>
        <path class="crater day_theme" d="M141.5 74L142.5 81.5L153.5 106.5L155.5 107.5H166.5L156.5 48L151.5 48.5L141.5 46.5L141 57L137 56L133 57L133.5 61.5L141.5 74Z" fill="#F6F4DA"/>
        <path class="crater day_theme" d="M83.5 77L84 78.5L85 80H88.5L94 76.5L97 80L103.5 82.5L106 82L106.5 76L122 71L123 68L121 65L121.5 62L121 59.5L119 57L116 55.5V50L114.5 47.5L108 46L103 44.5L97 51L94.5 50L92 51L83.5 77Z" fill="#F6F4DA"/>
        <path class="crater day_theme" d="M115.5 121.5L111.5 121.5L110.5 135.5L100.5 142.5L103.5 148.5L113 153L133 143.5L147.503 124.78L135.539 118.504L129.5 115.5L115.5 121.5Z" fill="#F6F4DA"/>
        <path class="crater day_theme" d="M55.4999 63.5L56 68L53.5 75L55.4999 76.5L66.9999 70L70.9999 63.5L70.9999 60.5L69.9999 59.5L65.9999 60L65.9999 57.5776L64.4999 56.5L55.4999 63.5Z" fill="#F6F4DA"/>
        <path class="crater day_theme" d="M13.5 73.5L16 70.5L16 68L14.5 66.5L12.5 66.5L3.49999 56L-2 74L3.5 111L7.53957 109.5L17.5001 94L17 90.5L11 84.5L13.5 73.5Z" fill="#F6F4DA"/>
        <path class="crater day_theme" d="M68.5001 146.112L76 133.5L80.5 127.5L93.5001 122.232L96 119.904L96 115.095L90.5 107.5L85.5 105L80.5 105L76 107.5L68.5 104L65.5 104L63 105L62 115.095L41 123L35 121.5L31.5 119L25.5 119.5L21.5 119.5L16 121L13.5 119.5L8 119L36.5 152.5L65.5 159L63 154L65.5 147.5L68.5001 146.112Z" fill="#F6F4DA"/>
        <path class="crater day_theme" d="M93.5 146L90.5001 147L90.0001 150.5L92.0001 155L85.0001 161L107 156L93.5 146Z" fill="#F6F4DA"/>
        <path class="crater day_theme" fill-rule="evenodd" clip-rule="evenodd" d="M30.8234 32.5C27.4702 36.721 23.9529 41.7308 22.9812 45.1373L22.9738 45.163L22.9639 45.1876L22.963 45.1897L22.9595 45.1986L22.9446 45.2366C22.9314 45.2706 22.9119 45.3217 22.8876 45.3879C22.8389 45.5203 22.771 45.7125 22.6953 45.9485C22.5434 46.422 22.3628 47.0646 22.243 47.7498C22.1224 48.4396 22.0682 49.1461 22.1521 49.7568C22.236 50.3682 22.4489 50.8252 22.8083 51.1063C23.0303 51.2799 23.2417 51.337 23.4523 51.3266C23.6756 51.3156 23.9349 51.2262 24.2295 51.0425C24.8266 50.6703 25.4527 49.9845 26.0358 49.1889C26.6116 48.403 27.1152 47.5525 27.4763 46.8943C27.6564 46.5662 27.7999 46.288 27.8981 46.0924C27.9472 45.9946 27.9849 45.9176 28.0101 45.8655L28.0385 45.8065L28.0454 45.792L28.047 45.7886L28.2082 45.4446L29.2828 45.2366L32.1899 46.108L31.9658 46.6818L31.9642 46.6861L31.9585 46.7008L31.9356 46.7608C31.9156 46.8139 31.8863 46.8924 31.8499 46.9927C31.7771 47.1935 31.676 47.4811 31.5636 47.8266C31.3381 48.5196 31.0701 49.4359 30.8924 50.3458C30.7119 51.2705 30.6372 52.1285 30.7551 52.7323C32.5 52.9239 31.768 52.5 32.5 52.5C33.4616 52.5 33.443 53.0458 34.4216 52.1933C35.3989 51.3418 36.6406 48.1244 37.5 46.6818C39.1405 43.9281 40.1482 42.4312 40.9084 39.3264C40.2533 39.0959 39.518 38.7983 38.9056 38.3804C38.1432 37.86 37.5001 37.1011 37.5 36C37.5 34.0656 38.473 32.5461 39.8382 31.5904C41.0392 30.7497 42.555 30.3349 44.0191 30.44C44.0388 29.9962 44.0475 29.517 43.8919 28.9964C43.687 28.3113 43.1749 27.5448 41.8038 26.9599C39.4984 25.9764 38.0193 26.5547 36 27.5C33.9631 28.4535 32.4996 30.39 30.8234 32.5ZM44.4095 31.4918C43.0427 31.2664 41.5 33.5 41 34C40.5 34.5 41 35.5 40.5 37C40.5 37.808 41 38 41.5828 38.5005C41.8083 38.5029 42.0605 38.5148 42.3142 38.5268C42.4744 38.5343 42.6352 38.5419 42.7903 38.5472C43.2424 38.5625 43.694 38.5614 44.1214 38.5044C44.9659 38.3918 45.6541 38.0737 46.0527 37.2764C47.5373 34.3073 45.9891 31.8147 44.4095 31.4918ZM41.8932 39.5089C41.1162 42.7043 39.7651 46.3221 38.0545 49.1934C37.1639 50.6883 36.1636 52.0019 35.0784 52.9473C33.9945 53.8917 32.7884 54.5 31.5 54.5C31.0166 54.5 30.6072 54.3403 30.3013 54.027C30.0085 53.7271 29.8529 53.3297 29.7737 52.9239C29.617 52.1214 29.7254 51.1044 29.911 50.1542C30.0994 49.1891 30.3806 48.2303 30.6127 47.5171C30.6896 47.2807 30.7615 47.0702 30.8234 46.8941L29 46.5L28.785 46.5545C28.6826 46.7583 28.5358 47.0423 28.353 47.3754C27.9805 48.0544 27.4535 48.946 26.8424 49.7799C26.2385 50.6041 25.5211 51.4157 24.7586 51.8911C24.3733 52.1313 23.9487 52.3033 23.5016 52.3254C23.0418 52.3481 22.5961 52.2098 22.1922 51.894C21.5518 51.3931 21.2649 50.6468 21.1613 49.8928C21.0577 49.1381 21.1286 48.3174 21.2579 47.5776C21.3881 46.8332 21.5824 46.1441 21.743 45.6432C21.8236 45.392 21.8962 45.1863 21.9491 45.0427C21.9755 44.9708 21.997 44.9143 22.0122 44.8753L22.0264 44.8389C23.0292 41.3365 25.4761 35.6188 28.922 31.281C30.6493 29.1067 32.653 27.2466 34.8833 26.2025C37.1313 25.1502 39.601 24.9329 42.1962 26.0401C43.8143 26.7304 44.5521 27.7139 44.85 28.71C45.0625 29.4209 45.0384 30.1414 45.0148 30.6238C47.1946 31.3866 48.5374 34.5431 46.9472 37.7236C46.3458 38.9263 45.284 39.3582 44.2535 39.4956C43.7433 39.5636 43.2262 39.5625 42.7564 39.5466C42.5681 39.5402 42.3933 39.5319 42.2285 39.524C42.1121 39.5184 42.0007 39.5131 41.8932 39.5089Z" fill="#F6F4DA"/>
    </g>
</svg>

