<svg width="1920" height="802" viewBox="0 0 1920 802" fill="none" xmlns="http://www.w3.org/2000/svg">
    <!--Mountains 2 (derriere)-->
    <mask id="mask0_7_49" style="mask-type:alpha" maskUnits="userSpaceOnUse" x="0" y="74" width="1920" height="728">
        <path d="M0 128.809L186.455 74.4528L261.896 128.22L277.238 113.843L281.257 116.651L303.777 160.879L338.683 115.346L356.961 100.517L396.272 141.286L409.763 205.412L452.438 248.248L481.337 264.887L493.182 266.992L509.069 295.538L541.702 309.452L544.762 312.512L526.072 322.407L549.861 346.425L504.346 362.241L303.777 463V802H1384.5L1665.5 351.5L1462.5 344L1428 332.5L1439.5 319L1406.5 313L1416.5 307L1490 299.5L1610.5 182.5L1648 161.5L1691 169L1773.5 123.5L1809.5 145H1920V802H0V128.809Z" fill="#495E6E"/>
    </mask>

    <g mask="url(#mask0_7_49)">
        <path class="mountains_2" d="M0 74.4492H1920V802H0V74.4492Z" fill="#495E6E"/>
        <path class="mountains_2_light" d="M190 75.5L362 98L571.5 342L494 372.5L332 255.5L325 237L262.5 211.5L225.5 156L261 180L278 203L326 210.5L359 264.5L461.5 328L480.5 321.5V315L471 282L467 279.5L443.5 275H437.5L433.5 272L427 264.5L422.5 255.5L422 251.5L420.5 247L431.5 258L440.5 268.5L447 265.5L472 279L479 289.5L484.5 302.5L506.5 307L509 300.5L490.5 273L473.5 271L455.5 253L451 250.5L439 239L431 237L413 230L415 227L423 228L417 218L404 203L388.5 172.5V166L366.5 153L356.5 134H359L378 144.5L382.5 141L379 128.5L359 112.5L357 100.5L348 98L303.5 161L303 162.5L301.5 164L289 150L277 132.5V113L259 122.5L262.5 129.5L259 130.5L250.5 123.5L221 106L198 85.5L190 75.5Z" fill="#638D96"/>
        <path class="mountains_2_light" d="M351.5 125L355.5 122L357.5 125L358 132L356.5 131.5L351.5 125Z" fill="#638D96"/>
        <path class="mountains_2_light" d="M1393.5 309L1511 296L1478.5 343L1446 350L1393.5 309Z" fill="#638D96"/>
        <path class="mountains_2_light" d="M1611 182L1648.5 160.5L1647 173L1630.5 183L1611 182Z" fill="#638D96"/>
        <path class="mountains_2_light" d="M1697 165L1775 122L1776 132L1759 149.5L1757.5 153L1718 166.5L1708.5 170.5L1710.5 166.5H1701L1697 165Z" fill="#638D96"/>
        <path class="mountains_2_light" d="M1767.5 169.5L1784.5 146.5L1779 161.5L1772.5 166.5L1767.5 169.5Z" fill="#638D96"/>
    </g>

    <!--Mountains 1 (devant)-->
    <mask id="mask1_7_49" style="mask-type:alpha" maskUnits="userSpaceOnUse" x="0" y="0" width="1920" height="802">
        <path d="M0 126.5L139 0.161682L215 108.162L237.5 169.662L284 240.662L337 254.5L445.5 292L478 348L497.5 356.5L510.5 359.5L518.5 365L500.5 367.5L460.5 386L485 396.5L437.5 425.5L355 444.5L345 445.5L497.5 487L762 802H1349L1532.5 498L1556.5 489L1586 445L1503 382L1500 375L1543 378.5L1494 350.5L1462 344.5L1449.5 326.5L1452.5 323.5L1482 312.5L1515.5 229L1609.5 166.5L1617 168L1614.5 193.5L1657 181L1773.5 174.5L1867.5 81.5L1920 100V802H0V126.5Z" fill="#283B49"/>
    </mask>
    
    <g mask="url(#mask1_7_49)">
        <rect class="mountains_1" width="1920" height="802" fill="#283B49"/>
        <path class="mountains_1_light" d="M0 192L149.5 339.5L168.5 362.5L204.5 374.5L233 388L183 439L109 404.5L47 422L0 446.5V192Z" fill="#4B737F"/>
        <path class="mountains_1_light" d="M1877.5 134L1880.5 136L1884.5 143.5V149.5L1873.5 152H1863.5L1850.5 157.5L1851.5 153.5L1863.5 143.5L1877.5 134Z" fill="#4B737F"/>
        <path class="mountains_1_light" d="M1806 283L1807.5 288L1766.5 342.5L1728.5 350L1697.5 372L1661 406.5L1638 442L1626.5 451L1650.5 408L1686 351.5L1733.5 321.5L1806 283Z" fill="#4B737F"/>
        <path class="mountains_1_light" d="M1826.5 242L1845.5 242.5H1920V265L1832 256H1822L1783 248.5L1808 244.5H1824.5L1826.5 242Z" fill="#4B737F"/>
        <path class="mountains_1_light" d="M1726 201L1730 200.5L1732 215.5L1734 222.5L1684.5 257L1680.5 261L1684.5 262.5L1674.5 265.5L1631.5 266.949L1592 376L1585 378.5L1617 265.5L1627.5 262L1630.5 263.449L1668.5 260.5L1679 248L1683.5 241.5L1708.5 215L1714.5 211L1726 201Z" fill="#4B737F"/>
        <path class="mountains_1_light" d="M137.043 1.94141L139 0.164062L562 397L345.5 447.5L350.5 442L431 415L445 394.5L427 363L420.5 353.5L416.5 346L383 332.5L362.5 334L348.5 336.5L341 336L355 331L384.5 313.5L398.5 310.5L434 320.5L438.5 324.5L400 329L399 332.5L416.5 336.5L422 339.5L426.391 350L441.5 374.5L465.5 368L469 360L462 329.5L456.5 318L427 301.5L424 289L368.5 272.5L313 267.5L296 256.5H274L249 229L228.5 193.5L250.5 208.5V201.5L237.5 184L233 174.5L215 153.5L204 116.5L191 97L166 71.5L161.5 54L137.043 1.94141Z" fill="#4B737F"/>
        <path class="mountains_1_light" d="M1387.33 307.426L1617 155L1868.5 80L1865.5 111.5L1834.5 129L1824.5 144.5L1787.5 166.5L1779 179.5L1770 181.5L1714.5 181.5L1708 177.868L1617 168.5L1609.51 179.5L1553.5 221.5V239L1519.5 263L1499.5 344.5L1510 351.5H1542.5L1566.5 365L1587 381.5L1592.33 407.5L1609.51 423.5L1615 432.5L1555 496.5L1387.33 307.426Z" fill="#4B737F"/>
    </g>
</svg>
